<svg width="30.000000" height="30.000000" viewBox="0 0 30 30" fill="none" xmlns="http://www.w3.org/2000/svg" xmlns:xlink="http://www.w3.org/1999/xlink">
	<desc>
			Created with Pixso.
	</desc>
	<defs>
		<clipPath id="clip8_9">
			<rect id="icloud.and.arrow.down ðŸš«ï¸ï¸ -m" width="30.000000" height="30.000000" fill="white" fill-opacity="0"/>
		</clipPath>
	</defs>
	<rect id="icloud.and.arrow.down ðŸš«ï¸ï¸ -m" width="30.000000" height="30.000000" fill="#FFFFFF" fill-opacity="0"/>
	<g clip-path="url(#clip8_9)">
		<path id="çŸ¢é‡ 22" d="M17.41 17.54L17.41 18.87L21.29 18.87C23.84 18.87 25.36 17.34 25.36 15.33C25.36 13.65 24.36 12.28 22.74 11.62C22.76 7.92 20.09 5.25 16.7 5.25C14.45 5.25 12.85 6.45 11.85 7.9C9.97 7.39 7.58 8.86 7.54 11.19C5.67 11.48 4.5 13.01 4.5 14.97C4.5 17.13 6.11 18.87 8.84 18.87L12.52 18.87L12.52 17.54L8.83 17.54C6.86 17.54 5.83 16.4 5.83 14.97C5.83 13.39 6.84 12.21 8.6 12.21C8.71 12.21 8.75 12.14 8.75 12.04C8.75 9.49 10.59 8.78 12.3 9.28C12.4 9.31 12.46 9.3 12.51 9.2C13.31 7.77 14.55 6.58 16.7 6.58C19.42 6.58 21.3 8.74 21.45 11.21C21.47 11.59 21.45 12.04 21.41 12.43C21.4 12.53 21.45 12.6 21.54 12.62C23.06 12.95 24.03 13.89 24.03 15.33C24.03 16.61 23.1 17.54 21.28 17.54L17.41 17.54ZM14.97 23.81C15.14 23.81 15.27 23.74 15.44 23.58L18.25 20.96C18.38 20.84 18.45 20.7 18.45 20.52C18.45 20.19 18.18 19.94 17.84 19.94C17.68 19.94 17.52 20.01 17.39 20.14L16.13 21.4L15.58 21.98L15.63 20.74L15.63 13.62C15.63 13.27 15.33 12.97 14.97 12.97C14.61 12.97 14.31 13.27 14.31 13.62L14.31 20.74L14.36 21.99L13.8 21.4L12.54 20.14C12.41 20.01 12.24 19.94 12.08 19.94C11.73 19.94 11.48 20.19 11.48 20.52C11.48 20.7 11.54 20.84 11.68 20.96L14.49 23.58C14.66 23.74 14.8 23.81 14.97 23.81Z" fill="#F7B501" fill-opacity="1.000000" fill-rule="evenodd"/>
	</g>
</svg>
