<svg width="30.000000" height="30.000000" viewBox="0 0 30 30" fill="none" xmlns="http://www.w3.org/2000/svg" xmlns:xlink="http://www.w3.org/1999/xlink">
	<desc>
			Created with Pixso.
	</desc>
	<defs>
		<clipPath id="clip8_43">
			<rect id="view_20" rx="-0.500000" width="29.000000" height="29.000000" transform="translate(0.500000 0.500000)" fill="white" fill-opacity="0"/>
		</clipPath>
	</defs>
	<rect id="view_20" rx="-0.500000" width="29.000000" height="29.000000" transform="translate(0.500000 0.500000)" fill="#FFFFFF" fill-opacity="0"/>
	<g clip-path="url(#clip8_43)">
		<path id="↳ Icon Color" d="M15 7.5C21.3 7.5 25.5 13.5 25.5 15C25.5 16.5 21.3 22.5 15 22.5C8.69 22.5 4.5 16.5 4.5 15C4.5 13.5 8.69 7.5 15 7.5ZM15 9.75C12.1 9.75 9.75 12.1 9.75 15C9.75 17.89 12.1 20.25 15 20.25C17.89 20.25 20.25 17.89 20.25 15C20.25 12.1 17.89 9.75 15 9.75ZM15 12.75C16.24 12.75 17.25 13.75 17.25 15C17.25 16.24 16.24 17.25 15 17.25C13.75 17.25 12.75 16.24 12.75 15C12.75 13.75 13.75 12.75 15 12.75Z" fill="#F7B501" fill-opacity="1.000000" fill-rule="evenodd"/>
	</g>
</svg>
